<svg width="127" height="67" viewBox="0 0 127 67" fill="none" xmlns="http://www.w3.org/2000/svg">
<path d="M48.117 66.951C38.829 66.951 30.573 65.661 23.349 63.081C16.125 60.415 10.406 56.588 6.192 51.6C2.064 46.612 0 40.592 0 33.54C0 26.144 2.064 19.952 6.192 14.964C10.406 9.976 16.125 6.235 23.349 3.741C30.573 1.247 38.829 0 48.117 0C58.437 0 67.338 1.419 74.82 4.257C82.388 7.009 88.193 10.922 92.235 15.996C96.363 20.984 98.427 26.832 98.427 33.54C98.427 38.528 97.266 43.086 94.944 47.214C92.622 51.256 89.268 54.782 84.882 57.792C80.496 60.716 75.207 62.995 69.015 64.629C62.823 66.177 55.857 66.951 48.117 66.951ZM59.727 47.343C66.263 47.343 72.24 46.956 77.658 46.182C83.162 45.322 87.548 43.903 90.816 41.925C94.17 39.947 95.847 37.152 95.847 33.54C95.847 29.842 94.17 27.004 90.816 25.026C87.548 23.048 83.162 21.672 77.658 20.898C72.24 20.124 66.263 19.737 59.727 19.737C50.955 19.737 44.161 20.898 39.345 23.22C34.529 25.456 32.121 28.896 32.121 33.54C32.121 36.55 33.196 39.087 35.346 41.151C37.496 43.215 40.635 44.763 44.763 45.795C48.891 46.827 53.879 47.343 59.727 47.343ZM95.847 1.935H126.807V65.145H97.653C97.653 65.145 97.481 64.156 97.137 62.178C96.879 60.2 96.578 57.362 96.234 53.664C95.976 49.966 95.847 45.623 95.847 40.635V1.935Z" fill="white"/>
</svg>
