<svg width="440" height="91" viewBox="0 0 440 91" fill="none" xmlns="http://www.w3.org/2000/svg">
<path d="M48.117 90.816C38.829 90.816 30.573 89.526 23.349 86.946C16.125 84.28 10.406 80.453 6.192 75.465C2.064 70.477 0 64.457 0 57.405C0 50.009 2.064 43.817 6.192 38.829C10.406 33.841 16.125 30.1 23.349 27.606C30.573 25.112 38.829 23.865 48.117 23.865C58.437 23.865 67.338 25.284 74.82 28.122C82.388 30.874 88.193 34.787 92.235 39.861C96.363 44.849 98.427 50.697 98.427 57.405C98.427 62.393 97.266 66.951 94.944 71.079C92.622 75.121 89.268 78.647 84.882 81.657C80.496 84.581 75.207 86.86 69.015 88.494C62.823 90.042 55.857 90.816 48.117 90.816ZM59.727 71.208C66.263 71.208 72.24 70.821 77.658 70.047C83.162 69.187 87.548 67.768 90.816 65.79C94.17 63.812 95.847 61.017 95.847 57.405C95.847 53.707 94.17 50.869 90.816 48.891C87.548 46.913 83.162 45.537 77.658 44.763C72.24 43.989 66.263 43.602 59.727 43.602C50.955 43.602 44.161 44.763 39.345 47.085C34.529 49.321 32.121 52.761 32.121 57.405C32.121 60.415 33.196 62.952 35.346 65.016C37.496 67.08 40.635 68.628 44.763 69.66C48.891 70.692 53.879 71.208 59.727 71.208ZM95.847 25.8H126.807V89.01H97.653C97.653 89.01 97.481 88.021 97.137 86.043C96.879 84.065 96.578 81.227 96.234 77.529C95.976 73.831 95.847 69.488 95.847 64.5V25.8Z" fill="#0C10E3"/>
<path d="M140.413 0H171.373V89.01H140.413V0Z" fill="#0C10E3"/>
<path d="M231.791 90.816C222.503 90.816 214.247 89.526 207.023 86.946C199.799 84.28 194.08 80.453 189.866 75.465C185.738 70.477 183.674 64.457 183.674 57.405C183.674 50.009 185.738 43.817 189.866 38.829C194.08 33.841 199.799 30.1 207.023 27.606C214.247 25.112 222.503 23.865 231.791 23.865C242.111 23.865 251.012 25.284 258.494 28.122C266.062 30.874 271.867 34.787 275.909 39.861C280.037 44.849 282.101 50.697 282.101 57.405C282.101 62.393 280.94 66.951 278.618 71.079C276.296 75.121 272.942 78.647 268.556 81.657C264.17 84.581 258.881 86.86 252.689 88.494C246.497 90.042 239.531 90.816 231.791 90.816ZM243.401 71.208C249.937 71.208 255.914 70.821 261.332 70.047C266.836 69.187 271.222 67.768 274.49 65.79C277.844 63.812 279.521 61.017 279.521 57.405C279.521 53.707 277.844 50.869 274.49 48.891C271.222 46.913 266.836 45.537 261.332 44.763C255.914 43.989 249.937 43.602 243.401 43.602C234.629 43.602 227.835 44.763 223.019 47.085C218.203 49.321 215.795 52.761 215.795 57.405C215.795 60.415 216.87 62.952 219.02 65.016C221.17 67.08 224.309 68.628 228.437 69.66C232.565 70.692 237.553 71.208 243.401 71.208ZM279.521 25.8H310.481V89.01H281.327C281.327 89.01 281.155 88.021 280.811 86.043C280.553 84.065 280.252 81.227 279.908 77.529C279.65 73.831 279.521 69.488 279.521 64.5V25.8Z" fill="#0C10E3"/>
<path d="M322.152 25.8H353.112V89.01H322.152V25.8ZM399.552 23.865C404.626 23.865 409.528 24.424 414.258 25.542C418.988 26.574 423.202 28.38 426.9 30.96C430.684 33.54 433.694 37.066 435.93 41.538C438.166 46.01 439.284 51.643 439.284 58.437V89.01H408.324V62.307C408.324 55.857 406.647 51.299 403.293 48.633C399.939 45.881 393.876 44.505 385.104 44.505C380.46 44.505 375.945 45.021 371.559 46.053C367.259 47.085 363.389 48.332 359.949 49.794C356.509 51.17 353.8 52.546 351.822 53.922L351.564 49.02C351.908 47.472 353.069 45.322 355.047 42.57C357.111 39.732 360.078 36.894 363.948 34.056C367.818 31.218 372.677 28.81 378.525 26.832C384.459 24.854 391.468 23.865 399.552 23.865Z" fill="#0C10E3"/>
</svg>
