<svg width="1151" height="155" viewBox="0 0 1151 155" fill="none" xmlns="http://www.w3.org/2000/svg">
<path d="M138.156 106.836H112.056L207.06 8.7H250.56V120.06H207.06V44.196L220.11 49.59L151.38 120.06H99.18L30.276 49.764L43.5 44.37V120.06H0V8.7H43.5L138.156 106.836Z" fill="white"/>
<path d="M269.714 0H311.474V120.06H269.714V0Z" fill="white"/>
<path d="M407.235 122.67C388.791 122.67 373.421 121.162 361.125 118.146C348.945 115.13 339.781 110.316 333.633 103.704C327.601 97.092 324.585 88.392 324.585 77.604C324.585 66.816 327.601 58.116 333.633 51.504C339.781 44.776 348.945 39.904 361.125 36.888C373.421 33.756 388.791 32.19 407.235 32.19C425.563 32.19 440.759 33.756 452.823 36.888C465.003 39.904 474.109 44.776 480.141 51.504C486.173 58.116 489.189 66.816 489.189 77.604C489.189 88.392 486.173 97.092 480.141 103.704C474.109 110.316 465.003 115.13 452.823 118.146C440.759 121.162 425.563 122.67 407.235 122.67ZM407.235 97.44C415.819 97.44 423.011 96.744 428.811 95.352C434.611 93.844 439.019 91.64 442.035 88.74C445.051 85.724 446.559 82.012 446.559 77.604C446.559 73.196 445.051 69.484 442.035 66.468C439.135 63.452 434.785 61.19 428.985 59.682C423.185 58.174 415.935 57.42 407.235 57.42C398.651 57.42 391.343 58.174 385.311 59.682C379.395 61.19 374.871 63.452 371.739 66.468C368.723 69.368 367.215 73.08 367.215 77.604C367.215 82.012 368.723 85.724 371.739 88.74C374.755 91.64 379.221 93.844 385.137 95.352C391.169 96.744 398.535 97.44 407.235 97.44Z" fill="white"/>
<path d="M562.726 122.496C550.198 122.496 539.062 120.756 529.318 117.276C519.574 113.68 511.86 108.518 506.176 101.79C500.608 95.062 497.824 86.942 497.824 77.43C497.824 67.454 500.608 59.102 506.176 52.374C511.86 45.646 519.574 40.6 529.318 37.236C539.062 33.872 550.198 32.19 562.726 32.19C573.166 32.19 582.562 33.292 590.914 35.496C599.266 37.584 606.399 40.658 612.315 44.718C618.231 48.662 622.756 53.418 625.888 58.986C629.02 64.554 630.586 70.702 630.586 77.43C630.586 84.158 629.02 90.306 625.888 95.874C622.756 101.326 618.231 106.082 612.315 110.142C606.399 114.086 599.266 117.16 590.914 119.364C582.562 121.452 573.166 122.496 562.726 122.496ZM578.385 96.048C587.201 96.048 595.264 95.526 602.572 94.482C609.996 93.322 615.912 91.408 620.32 88.74C624.844 86.072 627.106 82.302 627.106 77.43C627.106 72.442 624.844 68.614 620.32 65.946C615.912 63.278 609.996 61.422 602.572 60.378C595.264 59.334 587.201 58.812 578.385 58.812C566.553 58.812 557.389 60.378 550.893 63.51C544.397 66.526 541.15 71.166 541.15 77.43C541.15 81.49 542.6 84.912 545.5 87.696C548.4 90.48 552.634 92.568 558.202 93.96C563.77 95.352 570.497 96.048 578.385 96.048ZM627.106 0H668.866V120.06H629.542C629.078 117.392 628.556 113.1 627.976 107.184C627.396 101.152 627.106 94.424 627.106 87V0Z" fill="white"/>
<path d="M680.116 34.8H724.486L775.294 116.58L739.276 120.06L680.116 34.8ZM840.196 34.8L755.458 154.86H712.828L749.194 105.618L795.826 34.8H840.196Z" fill="white"/>
<path d="M842.936 103.182V77.082H961.952V103.182H842.936ZM803.96 120.06L878.606 8.7H926.978L1002.32 120.06H954.47L889.916 20.358H915.842L851.81 120.06H803.96Z" fill="white"/>
<path d="M1022.91 120.06L955.397 8.7H1004.47L1062.06 115.71H1044.31L1101.91 8.7H1150.28L1083.46 120.06H1022.91Z" fill="white"/>
</svg>
